<?xml version="1.0" encoding="UTF-8"?>
<svg width="600" height="275" version="1.1" xmlns="http://www.w3.org/2000/svg">
 <defs>
  <linearGradient id="b" x2="1" gradientTransform="matrix(7.3739,-4.3071,-2.9477,-5.0487,35.31,-73.58)" gradientUnits="userSpaceOnUse">
   <stop stop-color="#898a8e" offset="0"/>
   <stop stop-color="#898a8e" offset=".096318"/>
   <stop stop-color="#e5e3e2" offset=".5"/>
   <stop stop-color="#e5e3e2" offset=".6315"/>
   <stop stop-color="#898a8e" offset="1"/>
  </linearGradient>
  <linearGradient id="a" x2="1" gradientTransform="matrix(8.9805,0,0,-8.9799,35.76,-73.64)" gradientUnits="userSpaceOnUse">
   <stop stop-color="#154281" offset="0"/>
   <stop stop-color="#154281" offset=".20224"/>
   <stop stop-color="#7284b9" offset=".50562"/>
   <stop stop-color="#154281" offset=".80336"/>
   <stop stop-color="#154281" offset="1"/>
  </linearGradient>
 </defs>
 <path d="m298.74 181.63-0.0477 0.0799c0.0169-0.0338 0.0338-0.0638 0.0477-0.0799m102.09 43.716c-13.822-6.6145-32.644-7.2136-32.644-14.951 0-6.1152 6.1162-7.9466 13.341-7.9466 11.305 0 21.05 4.4767 21.993 4.4767 0.62591 0 1.2598-0.40219 1.7182-1.0187l1.0746-1.3812 5.6244-7.1575v-8e-3c0.0127 0-0.0169-0.0127-0.16433-0.0638-0.34346-0.17405-1.3189-0.61312-2.6847-1.156-1.1049-0.42791-1.7976-0.6642-2.1413-0.77437-5.6014-1.8666-15.941-3.9217-26.043-3.9217-18.225 0-34.559 6.1122-34.559 20.779 0 8.4544 3.8651 13.798 12.188 17.062 16.024 6.3183 32.102 5.9605 32.102 15.021 0 6.3201-3.9166 9.3709-12.715 9.3709-13.512 0-25.13-4.4767-26.079-4.4767-0.62909 0-1.4099 0.40726-1.7182 1.0171l-1.7222 3.1953-3.0155 5.5888 2.4605 0.92452c5.0106 1.9791 18.087 4.7532 30.697 4.7532 19.799 0 34.298-6.4823 33.928-21.493-0.18504-7.7352-3.6224-13.971-11.64-17.845m-270.02 11.228-26.668-41.525c-0.99317-1.1161-1.3269-1.3205-3.8209-1.3205h-13.625l-3.4861 0.0127v69.789s0.66906-0.0338 3.4861-0.0338h12.134c2.8164 0 3.474 0.0338 3.474 0.0338v-38.836c0-4.6846-0.12759-6.5264-0.12759-7.8537 0 0 26.304 42.131 28.913 45.096l0.14363-4e-3c2.6175-2.9786 27.577-45.091 27.577-45.091 0 1.3269-0.14364 3.1691-0.14364 7.8537v38.835s0.67539-0.0338 3.4865-0.0338h12.121c2.834 0 3.495 0.0338 3.495 0.0338v-69.79l-3.495-0.0127h-13.619c-2.4939 0-2.8166 0.20448-3.807 1.3205l-25.338 41.525h-0.70095m-98.388-4.5842h31.407v-11.001h-31.407v-16.809h35.043l4.759-11.005h-59.001c-2.5064 0.0338-3.1849 0.35149-3.2255 1.9726v67.792l61.448 0.0169v-8.8633l0.0169-2.1415h-39.044v-19.963m554.08-38.813h-12.129l-3.4878-0.0169s0.42471 42.138 0.42471 45.39l-37.446-44.051c-0.99312-1.1193-1.3396-1.3237-3.8308-1.3237h-13.613l-0.39289 8e-3c-2.1613 0.0169-2.9328 0.29234-3.0907 1.5009v68.293s0.65942-0.0169 3.4834-0.0169h12.129c2.8201 0 3.4878 0.0169 3.4878 0.0169v-38.832c0-4.6884-0.12758-7.783-0.12758-9.11 0 0 38.281 44.787 39.824 46.497 1.544 1.7078 3.8264 1.4258 3.8264 1.4258h10.951l3.4923 0.0477v-69.839l-3.4923 0.0169m-371.98 38.808h31.416v-11.001h-31.416v-16.809h35.048l4.7676-11.005h-59.04c-2.293 0.0338-3.0601 0.30164-3.1955 1.6056v68.159l61.443 0.0169 3e-3 -2.1378v-6.7255l0.0127-2.1415h-39.037v-19.963m287.54-3.8722c0-24.646-15.77-36.666-41.343-36.666-25.583 0-41.353 11.913-41.353 36.666 0 24.655 15.597 36.571 41.353 36.571 25.726 0 41.343-11.916 41.343-36.571zm-41.343 25.88c-12.459 0-17.774-9.986-17.774-25.88 0-15.887 5.3143-25.973 17.774-25.973 12.456 0 17.753 9.9812 17.753 25.973 0 15.894-5.2972 25.88-17.753 25.88m-173.15-19.863h7.9685l23.934 28.802h25.063l-29.234-31.248c6.1527-1.9368 18.933-5.705 18.933-18.849 0-19.149-25.906-19.662-38.697-19.662h-26.896c-2.8219 0-3.4918 0.30163-3.4918 2.1486v67.653s0.67063-0.0169 3.4918-0.0169h15.447l3.481 0.0169zm0-10.702v-19.558h6.1406c8.6296 0 18.105 0.30671 18.105 9.1685 0 9.3725-9.1317 10.389-19.917 10.389h-4.329" fill="#004685"/>
 <path d="m295.28 102.85 24.24 29.674c4.6639 5.5781 4.4837 6.5066 4.0592 7.1639l8.8903-14.927c0.37515-0.70576-0.67383-2.1964-2.1912-4.0818l-0.47899-0.59559-25.025-30.642-0.14363-0.18377-24.242-29.679c-4.6582-5.5731-4.2531-6.641-3.9887-7.2086l-8.8532 14.875c-0.39585 0.70256 0.56842 2.2946 2.0973 4.1856l0.47581 0.59077 25.013 30.644 0.14363 0.18546m12.137 64.2s0.30799-0.43429 0.11195-1.148c-0.29065-0.79516-1.1065-1.9073-2.159-3.2025l-0.47265-0.59399-25.021-30.64-0.15969-0.19138-24.223-29.671c-4.6675-5.5744-4.2568-6.646-4.001-7.2155l-8.8465 14.881c-0.40894 0.69939 0.5732 2.2961 2.0941 4.1856l0.47265 0.58917 25.01 30.64 0.14364 0.19011 24.249 29.681c4.4417 5.333 4.4946 6.4028 4.1155 7.076l8.6736-14.58m3.7944-6.431-0.0477 0.0798c0.0127-0.0338 0.0338-0.0638 0.0477-0.0798m8.7089-14.66c0.0959-0.16138 0.22053-0.53809 0.0798-1.073-0.29066-0.79676-1.1193-1.9018-2.1589-3.199l-0.47582-0.59238-25.021-30.644-0.14364-0.18673-24.249-29.674c-4.6494-5.5695-4.2582-6.641-3.9884-7.2136l-8.8501 14.884c-0.40091 0.69618 0.55888 2.2965 2.0941 4.1789l0.471 0.59554 25.012 30.642 0.15969 0.18208 24.232 29.681c4.4679 5.3403 4.5085 6.4149 4.1294 7.0797l8.7089-14.66m28.635-48.374-0.0477 0.0798c0.0169-0.0338 0.0338-0.0477 0.0477-0.0798m6.6415-18.929-0.4838-0.59559-25.02-30.642-0.14364-0.18673-24.249-29.674c-4.6461-5.573-4.2445-6.6833-4.01-7.2473l-8.7757 14.764c-0.0798 0.16603-0.19475 0.51253-0.0798 0.99634 0.25221 0.82709 1.0538 2.0091 2.1238 3.3366l0.46622 0.59237 25.021 30.645 0.14363 0.17743 24.237 29.678c4.4558 5.3438 4.4909 6.4221 4.1155 7.0868l8.8374-14.841c0.37853-0.7121-0.6786-2.1995-2.196-4.0872m-12.432 21.006-0.48063-0.59237-25.028-30.644-0.14363-0.18842-24.227-29.669c-4.6636-5.5762-4.2581-6.683-4.0202-7.2438l-8.7758 14.76c-0.0798 0.15969-0.19307 0.49656-0.0798 0.97077 0.23616 0.83347 1.0379 2.0249 2.1275 3.3627l0.4726 0.58278 25.016 30.647 0.14363 0.18377 24.233 29.678c4.4644 5.3456 4.4909 6.4172 4.1296 7.0782l8.832-14.842c0.37387-0.71214-0.66901-2.1923-2.1907-4.0855m-6.6504 18.929-0.0477 0.0959c0.0127-0.0338 0.0477-0.0477 0.0477-0.0959" fill="url(#b)"/>
 <path d="m349.55 81.42-33.434-13.911-0.2125-0.0798-34.523-14.362-0.53489-0.21081c-1.0746-0.38655-3.3841-1.1049-4.3587-0.55883-0.11195 0.0638-0.21546 0.1787-0.26827 0.27798l-8.6913 14.671c0.36543-0.45668 1.4242-1.3029 7.7518 1.4242l33.452 13.911 0.20742 0.0798 34.52 14.359 0.48857 0.19644c1.0442 0.38022 3.4211 1.1305 4.4079 0.57324 0.11195-0.0638 0.3705-0.38951 0.42631-0.48701l8.55-14.465c-0.36543 0.45664-1.4546 1.2965-7.7835-1.4227m-12.434 21.015-33.443-13.907-0.20447-0.0798-34.541-14.357-0.53809-0.21546c-1.057-0.37852-3.3791-1.1049-4.3587-0.55406-0.11195 0.0638-0.2125 0.1787-0.25559 0.2746l-8.6944 14.676c0.37852-0.46145 1.4226-1.3109 7.7514 1.4179l33.445 13.918 0.20574 0.0799 34.532 14.362 0.4934 0.19645c1.0395 0.37514 3.4107 1.1305 4.3944 0.56842 0.11195-0.0638 0.37515-0.39289 0.42791-0.4838l8.5592-14.466c-0.37853 0.46146-1.4594 1.2998-7.7749-1.4211m-12.455 21.002-33.443-13.913-0.20743-0.0798-34.532-14.36-0.5413-0.21546c-1.0538-0.38655-3.3804-1.1065-4.3587-0.55887-0.11195 0.0638-0.20743 0.17405-0.25221 0.28432l-8.6998 14.67c0.37514-0.46301 1.4274-1.3093 7.7572 1.4211l33.448 13.907 0.19813 0.0798 34.528 14.36 0.50298 0.19645c1.0315 0.37388 3.4102 1.1321 4.4061 0.56525 0.0959-0.0477 0.36416-0.39289 0.40556-0.48701l8.5641-14.463c-0.36416 0.46146-1.4626 1.3077-7.7744-1.421" fill="url(#a)"/>
</svg>
