<?xml version="1.0" encoding="UTF-8" standalone="no"?>
<!-- Created with Inkscape (http://www.inkscape.org/) -->
<svg
   xmlns:dc="http://purl.org/dc/elements/1.1/"
   xmlns:cc="http://web.resource.org/cc/"
   xmlns:rdf="http://www.w3.org/1999/02/22-rdf-syntax-ns#"
   xmlns:svg="http://www.w3.org/2000/svg"
   xmlns="http://www.w3.org/2000/svg"
   xmlns:sodipodi="http://sodipodi.sourceforge.net/DTD/sodipodi-0.dtd"
   xmlns:inkscape="http://www.inkscape.org/namespaces/inkscape"
   width="761.35693"
   height="534.28558"
   id="svg127772"
   sodipodi:version="0.32"
   inkscape:version="0.44"
   version="1.0"
   sodipodi:docbase="C:\Dokumente und Einstellungen\Andreas\Eigene Dateien\Eigene Bilder\sonstiges\Logos\Vektor\HiFi, Video"
   sodipodi:docname="JBL-Logo.svg">
  <defs
     id="defs127774">
    <clipPath
       clip-rule="nonzero"
       id="clp766">
      <path
         id="path7617"
         d="M 353.2,269.72 L 381.55,269.72 L 381.55,259.96 L 353.2,259.96 L 353.2,269.72 z " />
    </clipPath>
    <clipPath
       clip-rule="nonzero"
       id="clp767">
      <path
         id="path7626"
         d="M 353.2,269.72 L 381.55,269.72 L 381.55,259.96 L 353.2,259.96 L 353.2,269.72 z " />
    </clipPath>
    <clipPath
       clip-rule="nonzero"
       id="clp768">
      <path
         id="path7694"
         d="M 884.27,1291.1 L 1053.9,1291.1 L 1053.9,1266.6 L 884.27,1266.6 L 884.27,1291.1 z " />
    </clipPath>
    <clipPath
       clip-rule="nonzero"
       id="clp769">
      <path
         id="path7724"
         d="M 884.27,1291.1 L 1053.9,1291.1 L 1053.9,1266.6 L 884.27,1266.6 L 884.27,1291.1 z " />
    </clipPath>
  </defs>
  <sodipodi:namedview
     id="base"
     pagecolor="#ffffff"
     bordercolor="#666666"
     borderopacity="1.0"
     inkscape:pageopacity="0.0"
     inkscape:pageshadow="2"
     inkscape:zoom="0.35"
     inkscape:cx="381.7"
     inkscape:cy="375.48575"
     inkscape:document-units="px"
     inkscape:current-layer="layer1"
     inkscape:window-width="904"
     inkscape:window-height="574"
     inkscape:window-x="323"
     inkscape:window-y="247"
     height="101.7mm" />
  <metadata
     id="metadata127777">
    <rdf:RDF>
      <cc:Work
         rdf:about="">
        <dc:format>image/svg+xml</dc:format>
        <dc:type
           rdf:resource="http://purl.org/dc/dcmitype/StillImage" />
      </cc:Work>
    </rdf:RDF>
  </metadata>
  <g
     inkscape:label="Ebene 1"
     inkscape:groupmode="layer"
     id="layer1"
     transform="translate(-1940.17,-361.5235)">
    <g
       id="g32133"
       transform="matrix(1.558333,0,0,1.558333,-1083.262,-500.1603)">
      <rect
         y="552.95227"
         x="1940.1704"
         height="342.85712"
         width="488.57138"
         id="rect31246"
         style="opacity:1;fill:#f60;fill-opacity:1;stroke:none;stroke-width:1.77165353;stroke-miterlimit:4;stroke-dasharray:none" />
      <path
         d="M 2018.811,632.73194 L 2075.2876,632.73194 L 2046.0095,696.64182 L 2018.811,632.73194 M 2046.0095,736.77113 C 2056.1159,736.77113 2064.291,728.59675 2064.291,718.49011 C 2064.291,708.38323 2056.1159,700.35746 2046.0095,700.35746 C 2035.9031,700.35746 2027.728,708.38323 2027.728,718.49011 C 2027.728,728.59675 2035.9031,736.77113 2046.0095,736.77113 M 2125.3769,790.57436 C 2124.781,799.93792 2119.8774,807.51784 2111.8506,810.49041 C 2087.031,817.17863 2059.9809,820.29981 2037.5376,805.13973 C 2027.8763,792.35776 2030.8486,759.06528 2030.8486,759.06528 L 2061.1678,759.06528 C 2061.1678,759.06528 2056.561,799.19484 2072.612,800.23516 C 2080.4904,801.42408 2088.9622,798.45151 2091.4895,791.16883 L 2091.4895,632.73194 L 2124.781,632.73194 L 2125.3769,790.57436 M 2230.3058,639.56877 C 2243.387,646.85146 2238.3326,683.71122 2237.8874,708.23461 C 2236.1046,714.32837 2230.3058,715.36893 2225.9957,719.67904 C 2230.3058,722.65161 2238.1842,724.43501 2238.1842,731.12322 C 2238.7777,754.75516 2241.75,780.91357 2235.657,803.9508 C 2230.9018,809.89595 2224.8087,813.01712 2217.5238,812.42267 C 2195.0831,814.80052 2170.2609,814.20605 2147.2242,813.01712 L 2147.2242,634.81282 C 2173.8292,633.02917 2214.5515,630.9483 2230.3058,639.56877 z M 2178.2877,651.90491 L 2178.2877,710.61271 L 2201.3244,710.61271 C 2206.6756,710.61271 2206.6756,700.35746 2206.6756,700.35746 L 2206.6756,662.45739 C 2206.6756,662.45739 2206.6756,651.90491 2199.8383,651.90491 L 2178.2877,651.90491 z M 2178.2877,728.1509 L 2178.2877,797.4112 C 2178.2877,797.4112 2203.2557,800.38377 2206.6756,790.57436 L 2206.6756,738.55477 C 2206.0796,724.28638 2178.2877,728.1509 2178.2877,728.1509 M 2320.8207,784.48061 C 2320.8207,807.51784 2290.5015,807.07199 2290.5015,785.22369 L 2290.5015,632.73194 L 2258.1002,632.73194 L 2258.1002,812.27405 L 2350.1013,812.27405 L 2350.1013,759.06528 L 2320.8207,759.06528 L 2320.8207,784.48061"
         style="font-size:3.15269995px;letter-spacing:-0.063054;word-spacing:0;fill:white;fill-rule:nonzero;stroke:none;stroke-width:0.142;stroke-linecap:butt;stroke-linejoin:miter;stroke-miterlimit:4;font-family:fnt0, &quot;Futura&quot;, Arial"
         id="path7191" />
    </g>
  </g>
</svg>
